<?xml version="1.0" standalone="no"?>
<!DOCTYPE svg PUBLIC "-//W3C//DTD SVG 20010904//EN"
 "http://www.w3.org/TR/2001/REC-SVG-20010904/DTD/svg10.dtd">
<svg version="1.0" xmlns="http://www.w3.org/2000/svg"
 width="24.000000pt" height="24.000000pt" viewBox="0 0 24.000000 24.000000"
 preserveAspectRatio="xMidYMid meet">

<g transform="translate(0.000000,24.000000) scale(0.100000,-0.100000)"
fill="#000000" stroke="none">
<path d="M70 223 c-95 -49 -83 -183 20 -214 53 -16 107 10 134 65 17 36 18 43
5 79 -25 71 -96 102 -159 70z m80 -42 c0 -14 -18 -23 -30 -16 -6 4 -8 11 -5
16 8 12 35 12 35 0z m-15 -89 c0 -37 -3 -42 -20 -40 -16 2 -20 11 -20 46 0 37
3 42 20 40 16 -2 20 -11 20 -46z"/>
</g>
</svg>
