<?xml version="1.0" standalone="no"?>
<!DOCTYPE svg PUBLIC "-//W3C//DTD SVG 20010904//EN"
 "http://www.w3.org/TR/2001/REC-SVG-20010904/DTD/svg10.dtd">
<svg version="1.0" xmlns="http://www.w3.org/2000/svg"
 width="24.000000pt" height="24.000000pt" viewBox="0 0 24.000000 24.000000"
 preserveAspectRatio="xMidYMid meet">

<g transform="translate(0.000000,24.000000) scale(0.100000,-0.100000)"
fill="#000000" stroke="none">
<path d="M87 222 c-10 -10 -17 -27 -17 -38 1 -19 1 -19 15 1 16 20 65 32 65
15 0 -5 5 -10 10 -10 18 0 11 29 -9 40 -28 15 -46 12 -64 -8z"/>
<path d="M65 86 c-30 -16 -34 -27 -22 -48 11 -17 12 -17 19 4 6 21 6 21 7 -4
1 -23 6 -28 26 -28 21 0 25 5 25 31 0 25 -3 30 -16 25 -12 -4 -15 -2 -11 9 8
20 -4 25 -28 11z"/>
</g>
</svg>
