<?xml version="1.0" standalone="no"?>
<!DOCTYPE svg PUBLIC "-//W3C//DTD SVG 20010904//EN"
 "http://www.w3.org/TR/2001/REC-SVG-20010904/DTD/svg10.dtd">
<svg version="1.0" xmlns="http://www.w3.org/2000/svg"
 width="24.000000pt" height="24.000000pt" viewBox="0 0 24.000000 24.000000"
 preserveAspectRatio="xMidYMid meet">

<g transform="translate(0.000000,24.000000) scale(0.100000,-0.100000)"
fill="#000000" stroke="none">
<path d="M33 203 c-4 -10 -12 -22 -20 -26 -17 -10 -18 -138 -1 -155 7 -7 43
-12 90 -12 102 0 122 18 132 116 4 37 4 69 2 72 -9 8 -96 21 -149 21 -37 1
-49 -3 -54 -16z m189 -12 c3 -3 3 -33 -2 -66 -6 -53 -8 -55 -9 -18 -2 71 -4
73 -92 73 -74 0 -90 6 -72 24 9 9 165 -3 175 -13z m-27 -55 c0 -22 -8 -33 -36
-49 l-36 -21 -28 22 c-26 21 -30 21 -51 7 -13 -8 -26 -15 -29 -15 -8 0 -6 76
2 84 4 4 46 5 93 4 l85 -3 0 -29z m-99 -63 c23 -15 28 -15 60 0 45 22 46 22
42 -10 l-3 -28 -92 -3 c-77 -2 -93 0 -93 12 0 14 36 46 53 46 4 0 19 -7 33
-17z"/>
<path d="M103 134 c-7 -18 11 -39 26 -30 17 11 13 46 -4 46 -9 0 -18 -7 -22
-16z m27 -4 c0 -5 -4 -10 -10 -10 -5 0 -10 5 -10 10 0 6 5 10 10 10 6 0 10 -4
10 -10z"/>
</g>
</svg>
