<?xml version="1.0" standalone="no"?>
<!DOCTYPE svg PUBLIC "-//W3C//DTD SVG 20010904//EN"
 "http://www.w3.org/TR/2001/REC-SVG-20010904/DTD/svg10.dtd">
<svg version="1.0" xmlns="http://www.w3.org/2000/svg"
 width="24.000000pt" height="24.000000pt" viewBox="0 0 24.000000 24.000000"
 preserveAspectRatio="xMidYMid meet">

<g transform="translate(0.000000,24.000000) scale(0.100000,-0.100000)"
fill="#000000" stroke="none">
<path d="M67 172 c-26 -26 -47 -52 -47 -57 0 -5 23 13 50 40 l50 49 50 -49
c28 -27 50 -45 50 -39 0 10 -91 104 -101 104 -2 0 -26 -22 -52 -48z"/>
<path d="M43 65 c2 -37 4 -41 40 -49 23 -6 51 -6 75 0 35 8 37 12 39 49 l1 40
-6 -35 -7 -35 -65 0 -65 0 -7 35 -6 35 1 -40z"/>
</g>
</svg>
