<?xml version="1.0" standalone="no"?>
<!DOCTYPE svg PUBLIC "-//W3C//DTD SVG 20010904//EN"
 "http://www.w3.org/TR/2001/REC-SVG-20010904/DTD/svg10.dtd">
<svg version="1.0" xmlns="http://www.w3.org/2000/svg"
 width="24.000000pt" height="24.000000pt" viewBox="0 0 24.000000 24.000000"
 preserveAspectRatio="xMidYMid meet">

<g transform="translate(0.000000,24.000000) scale(0.100000,-0.100000)"
fill="#000000" stroke="none">
<path d="M50 160 c0 -38 -3 -70 -7 -70 -5 0 -14 -4 -22 -9 -11 -7 -10 -15 8
-45 20 -32 25 -35 44 -25 12 7 23 13 25 14 7 6 -19 45 -26 41 -5 -3 -9 22 -10
55 -2 57 -2 59 23 59 34 0 33 28 -2 33 -16 2 7 5 50 6 l77 1 0 -55 c0 -67 -15
-79 -79 -64 -24 5 -46 7 -49 5 -2 -3 14 -8 37 -12 22 -4 41 -11 41 -16 0 -5
13 0 30 12 17 12 30 17 30 12 0 -5 -17 -21 -37 -35 -21 -15 -33 -27 -28 -27 6
0 24 13 41 28 29 26 30 30 26 95 l-4 67 -84 0 -84 0 0 -70z m6 -87 c0 -10 4
-17 11 -16 19 4 23 -26 4 -36 -14 -8 -21 -4 -34 19 -16 27 -16 29 0 39 10 6
19 11 19 11 1 0 1 -8 0 -17z"/>
<path d="M121 194 c0 -11 3 -14 6 -6 3 7 2 16 -1 19 -3 4 -6 -2 -5 -13z"/>
<path d="M140 195 c0 -12 7 -15 25 -13 33 4 33 22 0 26 -18 2 -25 -1 -25 -13z"/>
<path d="M98 143 c17 -2 47 -2 65 0 17 2 3 4 -33 4 -36 0 -50 -2 -32 -4z"/>
<path d="M97 123 c18 -2 50 -2 70 0 21 2 7 4 -32 4 -38 0 -55 -2 -38 -4z"/>
</g>
</svg>
